<svg width="41" height="41" viewBox="0 0 41 41" fill="none" xmlns="http://www.w3.org/2000/svg">
<g clip-path="url(#clip0_21_48)">
<path fill-rule="evenodd" clip-rule="evenodd" d="M19.7058 1.02816C20.3391 0.606497 21.1641 0.606497 21.7991 1.02816L39.9058 13.0448C40.4341 13.3948 40.7525 13.9865 40.7525 14.6215V26.8015C40.7525 27.4348 40.4358 28.0282 39.9058 28.3798L21.7991 40.3965C21.1658 40.8165 20.3408 40.8165 19.7058 40.3965L1.59914 28.3782C1.33895 28.2056 1.12548 27.9713 0.977762 27.6962C0.83004 27.4211 0.752646 27.1137 0.752472 26.8015L0.752472 14.6215C0.752472 13.9882 1.06914 13.3948 1.59914 13.0432L19.7058 1.02816ZM4.53914 18.1498V23.2465L8.35247 20.6798L4.53914 18.1498ZM11.7675 22.9465L6.05247 26.7915L18.8591 35.2915V27.6532L11.7691 22.9465H11.7675ZM22.6458 27.6532V35.2898L35.4525 26.7898L29.7358 22.9465L22.6458 27.6532ZM33.1508 20.6815L36.9675 23.2482V18.1482L33.1508 20.6815ZM35.4358 14.6215L29.7525 18.3932L22.6458 13.6132V6.13317L35.4358 14.6215ZM18.8591 6.13317V13.6115L11.7541 18.3915L6.06914 14.6215L18.8591 6.13317ZM20.7525 16.9032L15.1691 20.6598L20.7525 24.3648L26.3358 20.6598L20.7525 16.9032Z" fill="#F8F8F8"/>
</g>
<defs>
<clipPath id="clip0_21_48">
<rect width="40" height="40" fill="white" transform="translate(0.752472 0.711426)"/>
</clipPath>
</defs>
</svg>
