<svg width="40" height="41" viewBox="0 0 40 41" fill="none" xmlns="http://www.w3.org/2000/svg">
<path fill-rule="evenodd" clip-rule="evenodd" d="M12.4417 2.48793C14.3967 2.39793 15.02 2.37793 20 2.37793C24.98 2.37793 25.6033 2.3996 27.5567 2.48793C29.51 2.57626 30.8433 2.88793 32.01 3.3396C33.2317 3.80126 34.34 4.52293 35.2567 5.45626C36.19 6.37126 36.91 7.47793 37.37 8.70126C37.8233 9.86793 38.1333 11.2013 38.2233 13.1513C38.3133 15.1096 38.3333 15.7329 38.3333 20.7113C38.3333 25.6913 38.3117 26.3146 38.2233 28.2696C38.135 30.2196 37.8233 31.5529 37.37 32.7196C36.91 33.9431 36.1888 35.0516 35.2567 35.9679C34.34 36.9013 33.2317 37.6213 32.01 38.0813C30.8433 38.5346 29.51 38.8446 27.56 38.9346C25.6033 39.0246 24.98 39.0446 20 39.0446C15.02 39.0446 14.3967 39.0229 12.4417 38.9346C10.4917 38.8463 9.15833 38.5346 7.99166 38.0813C6.7682 37.6212 5.6597 36.9 4.74333 35.9679C3.81063 35.0524 3.08886 33.9444 2.62833 32.7213C2.17666 31.5546 1.86666 30.2213 1.77666 28.2713C1.68666 26.3129 1.66666 25.6896 1.66666 20.7113C1.66666 15.7313 1.68833 15.1079 1.77666 13.1546C1.865 11.2013 2.17666 9.86793 2.62833 8.70126C3.08954 7.47806 3.81186 6.37012 4.745 5.4546C5.66006 4.5221 6.76745 3.80034 7.99 3.3396C9.15666 2.88793 10.49 2.57793 12.44 2.48793H12.4417ZM27.4083 5.78793C25.475 5.6996 24.895 5.68126 20 5.68126C15.105 5.68126 14.525 5.6996 12.5917 5.78793C10.8033 5.8696 9.83333 6.16793 9.18666 6.4196C8.33166 6.75293 7.72 7.14793 7.07833 7.7896C6.47007 8.38135 6.00196 9.10173 5.70833 9.89793C5.45666 10.5446 5.15833 11.5146 5.07666 13.3029C4.98833 15.2363 4.97 15.8163 4.97 20.7113C4.97 25.6063 4.98833 26.1863 5.07666 28.1196C5.15833 29.9079 5.45666 30.8779 5.70833 31.5246C6.00166 32.3196 6.47 33.0413 7.07833 33.6329C7.67 34.2413 8.39166 34.7096 9.18666 35.0029C9.83333 35.2546 10.8033 35.5529 12.5917 35.6346C14.525 35.7229 15.1033 35.7413 20 35.7413C24.8967 35.7413 25.475 35.7229 27.4083 35.6346C29.1967 35.5529 30.1667 35.2546 30.8133 35.0029C31.6683 34.6696 32.28 34.2746 32.9217 33.6329C33.53 33.0413 33.9983 32.3196 34.2917 31.5246C34.5433 30.8779 34.8417 29.9079 34.9233 28.1196C35.0117 26.1863 35.03 25.6063 35.03 20.7113C35.03 15.8163 35.0117 15.2363 34.9233 13.3029C34.8417 11.5146 34.5433 10.5446 34.2917 9.89793C33.9583 9.04293 33.5633 8.43126 32.9217 7.7896C32.3299 7.18138 31.6095 6.71328 30.8133 6.4196C30.1667 6.16793 29.1967 5.8696 27.4083 5.78793ZM17.6583 26.3629C18.9661 26.9073 20.4223 26.9808 21.7782 26.5708C23.1341 26.1608 24.3056 25.2928 25.0927 24.115C25.8797 22.9372 26.2334 21.5227 26.0934 20.1131C25.9534 18.7035 25.3283 17.3862 24.325 16.3863C23.6854 15.7471 22.912 15.2576 22.0606 14.9532C21.2091 14.6487 20.3007 14.5369 19.4008 14.6256C18.5009 14.7144 17.6319 15.0016 16.8563 15.4665C16.0808 15.9314 15.4179 16.5625 14.9155 17.3143C14.4131 18.0662 14.0836 18.9201 13.9509 19.8145C13.8181 20.709 13.8852 21.6217 14.1476 22.4871C14.4099 23.3525 14.8608 24.1489 15.4679 24.8191C16.0749 25.4893 16.823 26.0166 17.6583 26.3629ZM13.3367 14.0479C14.2117 13.1729 15.2505 12.4788 16.3938 12.0052C17.5371 11.5316 18.7625 11.2879 20 11.2879C21.2375 11.2879 22.4629 11.5316 23.6062 12.0052C24.7495 12.4788 25.7883 13.1729 26.6633 14.0479C27.5384 14.923 28.2325 15.9618 28.7061 17.1051C29.1796 18.2484 29.4234 19.4738 29.4234 20.7113C29.4234 21.9488 29.1796 23.1741 28.7061 24.3174C28.2325 25.4607 27.5384 26.4996 26.6633 27.3746C24.8961 29.1418 22.4992 30.1346 20 30.1346C17.5008 30.1346 15.1039 29.1418 13.3367 27.3746C11.5694 25.6074 10.5766 23.2105 10.5766 20.7113C10.5766 18.212 11.5694 15.8152 13.3367 14.0479ZM31.5133 12.6913C31.7302 12.4867 31.9038 12.2407 32.0238 11.9679C32.1439 11.695 32.208 11.4009 32.2124 11.1028C32.2167 10.8047 32.1612 10.5088 32.0491 10.2326C31.9371 9.95638 31.7707 9.70545 31.5599 9.49466C31.3491 9.28387 31.0982 9.11752 30.822 9.00546C30.5457 8.89339 30.2498 8.83789 29.9518 8.84223C29.6537 8.84658 29.3596 8.91069 29.0867 9.03076C28.8139 9.15083 28.5679 9.32442 28.3633 9.54126C27.9655 9.96298 27.7477 10.5231 27.7562 11.1028C27.7646 11.6825 27.9986 12.2361 28.4086 12.646C28.8185 13.0559 29.3721 13.29 29.9518 13.2984C30.5315 13.3069 31.0916 13.0891 31.5133 12.6913Z" fill="#F8F8F8"/>
</svg>
