<svg width="41" height="41" viewBox="0 0 41 41" fill="none" xmlns="http://www.w3.org/2000/svg">
<g clip-path="url(#clip0_21_58)">
<path fill-rule="evenodd" clip-rule="evenodd" d="M20.2574 0.711426C9.20742 0.711426 0.257416 9.66143 0.257416 20.7114C0.257416 29.5614 5.98242 37.0364 13.9324 39.6864C14.9324 39.8614 15.3074 39.2614 15.3074 38.7364C15.3074 38.2614 15.2824 36.6864 15.2824 35.0114C10.2574 35.9364 8.95742 33.7864 8.55742 32.6614C8.33242 32.0864 7.35742 30.3114 6.50742 29.8364C5.80742 29.4614 4.80742 28.5364 6.48242 28.5114C8.05742 28.4864 9.18242 29.9614 9.55742 30.5614C11.3574 33.5864 14.2324 32.7364 15.3824 32.2114C15.5574 30.9114 16.0824 30.0364 16.6574 29.5364C12.2074 29.0364 7.55742 27.3114 7.55742 19.6614C7.55742 17.4864 8.33242 15.6864 9.60742 14.2864C9.40742 13.7864 8.70742 11.7364 9.80742 8.98643C9.80742 8.98643 11.4824 8.46143 15.3074 11.0364C16.9074 10.5864 18.6074 10.3614 20.3074 10.3614C22.0074 10.3614 23.7074 10.5864 25.3074 11.0364C29.1324 8.43643 30.8074 8.98643 30.8074 8.98643C31.9074 11.7364 31.2074 13.7864 31.0074 14.2864C32.2824 15.6864 33.0574 17.4614 33.0574 19.6614C33.0574 27.3364 28.3824 29.0364 23.9324 29.5364C24.6574 30.1614 25.2824 31.3614 25.2824 33.2364C25.2824 35.9114 25.2574 38.0614 25.2574 38.7364C25.2574 39.2614 25.6324 39.8864 26.6324 39.6864C30.6027 38.346 34.0527 35.7942 36.4969 32.3904C38.941 28.9865 40.2562 24.9019 40.2574 20.7114C40.2574 9.66143 31.3074 0.711426 20.2574 0.711426Z" fill="#F8F8F8"/>
</g>
<defs>
<clipPath id="clip0_21_58">
<rect width="40" height="40" fill="white" transform="translate(0.257416 0.711426)"/>
</clipPath>
</defs>
</svg>
