<svg width="41" height="41" viewBox="0 0 41 41" fill="none" xmlns="http://www.w3.org/2000/svg">
<g clip-path="url(#clip0_21_51)">
<path d="M34.5799 34.8002H28.6637V25.5164C28.6637 23.3027 28.6174 20.4577 25.5699 20.4577C22.4849 20.4577 22.0149 22.8589 22.0149 25.3527V34.7989H16.0912V15.7102H21.7812V18.3139H21.8574C22.6524 16.8102 24.5862 15.2289 27.4712 15.2289C33.4724 15.2289 34.5862 19.1802 34.5862 24.3177V34.7989L34.5799 34.8002ZM9.39869 13.1014C8.94654 13.1016 8.49879 13.0126 8.0811 12.8394C7.66341 12.6663 7.28398 12.4124 6.96455 12.0924C6.64512 11.7724 6.39196 11.3925 6.21957 10.9745C6.04718 10.5565 5.95896 10.1086 5.95994 9.65643C5.96069 8.97586 6.1632 8.3108 6.5419 7.74533C6.92059 7.17986 7.45844 6.73937 8.08746 6.47956C8.71648 6.21975 9.40841 6.15228 10.0758 6.28569C10.7431 6.4191 11.3559 6.74739 11.8367 7.22906C12.3175 7.71072 12.6447 8.32413 12.7769 8.99173C12.9091 9.65933 12.8404 10.3511 12.5794 10.9797C12.3185 11.6082 11.877 12.1453 11.3108 12.5229C10.7447 12.9006 10.0793 13.1019 9.39869 13.1014ZM12.3662 34.8002H6.42994V15.7114H12.3662V34.8002ZM37.5499 0.711426H3.45494C1.82619 0.711426 0.504944 2.00018 0.504944 3.59518V37.8289C0.504944 39.4239 1.82619 40.7127 3.45494 40.7127H37.5437C39.1699 40.7127 40.5049 39.4239 40.5049 37.8289V3.59518C40.5049 2.00018 39.1699 0.711426 37.5437 0.711426H37.5499Z" fill="#F8F8F8"/>
</g>
<defs>
<clipPath id="clip0_21_51">
<rect width="40" height="40" fill="white" transform="translate(0.504944 0.711426)"/>
</clipPath>
</defs>
</svg>
