<svg width="40" height="41" viewBox="0 0 40 41" fill="none" xmlns="http://www.w3.org/2000/svg">
<path d="M33.3333 30.0225H30V15.4392L20 21.6892L10 15.4392V30.0225H6.66667V10.0225H8.66667L20 17.1059L31.3333 10.0225H33.3333V30.0225ZM33.3333 6.68921H6.66667C4.81667 6.68921 3.33334 8.17254 3.33334 10.0225V30.0225C3.33334 30.9066 3.68453 31.7544 4.30965 32.3796C4.93477 33.0047 5.78261 33.3559 6.66667 33.3559H33.3333C34.2174 33.3559 35.0652 33.0047 35.6904 32.3796C36.3155 31.7544 36.6667 30.9066 36.6667 30.0225V10.0225C36.6667 9.13849 36.3155 8.29064 35.6904 7.66552C35.0652 7.0404 34.2174 6.68921 33.3333 6.68921Z" fill="#F8F8F8"/>
</svg>
