<svg width="60" height="60" viewBox="0 0 60 60" fill="none" xmlns="http://www.w3.org/2000/svg">
<path d="M30 44.0625C29.6306 44.063 29.2647 43.9904 28.9234 43.849C28.5821 43.7077 28.2722 43.5002 28.0113 43.2387L9.26131 24.4887C8.74096 23.9598 8.45068 23.2467 8.4537 22.5047C8.45672 21.7628 8.7528 21.0521 9.27744 20.5274C9.80208 20.0028 10.5128 19.7067 11.2547 19.7037C11.9967 19.7007 12.7098 19.991 13.2386 20.5113L30 37.2724L46.7613 20.5113C47.2902 19.991 48.0033 19.7007 48.7452 19.7037C49.4872 19.7067 50.1979 20.0028 50.7225 20.5274C51.2472 21.0521 51.5432 21.7628 51.5462 22.5047C51.5493 23.2467 51.259 23.9598 50.7386 24.4887L31.9886 43.2387C31.7278 43.5002 31.4178 43.7077 31.0765 43.849C30.7352 43.9904 30.3694 44.063 30 44.0625Z" fill="#F8F8F8"/>
</svg>
